<mxfile host="app.diagrams.net" modified="2023-10-06T20:28:32.150Z" agent="Mozilla/5.0 (Windows NT 10.0; Win64; x64) AppleWebKit/537.36 (KHTML, like Gecko) Chrome/116.0.0.0 Safari/537.36 OPR/102.0.0.0" etag="by0MZKRxCyv4luDOxIoZ" version="21.8.2" type="google">
  <diagram name="Página-1" id="m3YST1SfClhNRL1c8nwr">
    <mxGraphModel grid="1" page="1" gridSize="10" guides="1" tooltips="1" connect="1" arrows="1" fold="1" pageScale="1" pageWidth="827" pageHeight="1169" math="0" shadow="0">
      <root>
        <mxCell id="0" />
        <mxCell id="1" parent="0" />
        <mxCell id="jvSLYuEVAEuMC5ZaAQWm-18" value="" style="rounded=0;whiteSpace=wrap;html=1;rotation=90;direction=south;" vertex="1" parent="1">
          <mxGeometry x="-565" y="-550" width="1965" height="805" as="geometry" />
        </mxCell>
        <mxCell id="yDY7dXm-17AjWciMNViI-1" value="" style="whiteSpace=wrap;html=1;aspect=fixed;" vertex="1" parent="1">
          <mxGeometry x="124" y="155" width="580" height="580" as="geometry" />
        </mxCell>
        <mxCell id="yDY7dXm-17AjWciMNViI-2" value="" style="ellipse;whiteSpace=wrap;html=1;aspect=fixed;" vertex="1" parent="1">
          <mxGeometry x="544" y="195" width="100" height="100" as="geometry" />
        </mxCell>
        <mxCell id="yDY7dXm-17AjWciMNViI-3" value="&lt;h1&gt;&lt;font style=&quot;font-size: 18px;&quot;&gt;Olá meu nome&lt;/font&gt;&amp;nbsp; &amp;nbsp; &amp;nbsp; &amp;nbsp; &amp;nbsp; &amp;nbsp;&amp;nbsp;&lt;font style=&quot;background-color: initial; font-weight: normal; font-size: 22px;&quot;&gt;&amp;nbsp; &amp;nbsp; &amp;nbsp;&lt;/font&gt;é&amp;nbsp; &amp;nbsp; &amp;nbsp; &amp;nbsp; &amp;nbsp; &amp;nbsp; &amp;nbsp; Guilherme&amp;nbsp; &amp;nbsp; &amp;nbsp; &amp;nbsp; &amp;nbsp; &amp;nbsp; &amp;nbsp; &amp;nbsp; &amp;nbsp; &amp;nbsp; &amp;nbsp; Thomé&lt;/h1&gt;&lt;div&gt;&lt;br&gt;&lt;/div&gt;" style="text;html=1;strokeColor=none;fillColor=none;spacing=5;spacingTop=-20;whiteSpace=wrap;overflow=hidden;rounded=0;" vertex="1" parent="1">
          <mxGeometry x="174" y="185" width="260" height="140" as="geometry" />
        </mxCell>
        <mxCell id="yDY7dXm-17AjWciMNViI-4" value="" style="rounded=0;whiteSpace=wrap;html=1;" vertex="1" parent="1">
          <mxGeometry x="124" y="335" width="580" height="140" as="geometry" />
        </mxCell>
        <mxCell id="yDY7dXm-17AjWciMNViI-10" value="" style="shape=parallelogram;perimeter=parallelogramPerimeter;whiteSpace=wrap;html=1;fixedSize=1;" vertex="1" parent="1">
          <mxGeometry x="174" y="365" width="160" height="80" as="geometry" />
        </mxCell>
        <mxCell id="yDY7dXm-17AjWciMNViI-13" value="" style="rounded=1;whiteSpace=wrap;html=1;arcSize=0;" vertex="1" parent="1">
          <mxGeometry x="124" y="625" width="580" height="140" as="geometry" />
        </mxCell>
        <mxCell id="yDY7dXm-17AjWciMNViI-16" value="" style="triangle;whiteSpace=wrap;html=1;" vertex="1" parent="1">
          <mxGeometry x="544" y="502.5" width="100" height="102.5" as="geometry" />
        </mxCell>
        <mxCell id="jvSLYuEVAEuMC5ZaAQWm-1" value="&lt;h1&gt;Sobre mim&lt;/h1&gt;&lt;p&gt;Lorem ipsum dolor sit amet, consectetur adipisicing elit, sed do eiusmod tempor incididunt ut labore et dolore magna aliqua.&lt;/p&gt;" style="text;html=1;strokeColor=none;fillColor=none;spacing=5;spacingTop=-20;whiteSpace=wrap;overflow=hidden;rounded=0;" vertex="1" parent="1">
          <mxGeometry x="464" y="345" width="190" height="120" as="geometry" />
        </mxCell>
        <mxCell id="jvSLYuEVAEuMC5ZaAQWm-2" value="&lt;h1&gt;Contato&lt;/h1&gt;&lt;p&gt;Lorem ipsum dolor sit amet, consectetur adipisicing elit, sed do eiusmod tempor incididunt ut labore et dolore magna aliqua.&lt;/p&gt;" style="text;html=1;strokeColor=none;fillColor=none;spacing=5;spacingTop=-20;whiteSpace=wrap;overflow=hidden;rounded=0;" vertex="1" parent="1">
          <mxGeometry x="174" y="493.75" width="190" height="120" as="geometry" />
        </mxCell>
        <mxCell id="jvSLYuEVAEuMC5ZaAQWm-4" value="" style="edgeStyle=orthogonalEdgeStyle;rounded=0;orthogonalLoop=1;jettySize=auto;html=1;" edge="1" parent="1" source="jvSLYuEVAEuMC5ZaAQWm-3" target="yDY7dXm-17AjWciMNViI-1">
          <mxGeometry relative="1" as="geometry" />
        </mxCell>
        <mxCell id="jvSLYuEVAEuMC5ZaAQWm-3" value="Widescreen" style="text;html=1;align=center;verticalAlign=middle;resizable=0;points=[];autosize=1;strokeColor=none;fillColor=none;fontSize=48;" vertex="1" parent="1">
          <mxGeometry x="274" width="280" height="70" as="geometry" />
        </mxCell>
        <mxCell id="jvSLYuEVAEuMC5ZaAQWm-7" value="" style="rounded=0;whiteSpace=wrap;html=1;rotation=-180;" vertex="1" parent="1">
          <mxGeometry x="220.25" y="-1070" width="387.5" height="777.5" as="geometry" />
        </mxCell>
        <mxCell id="jvSLYuEVAEuMC5ZaAQWm-8" value="&lt;h1&gt;&lt;font style=&quot;font-size: 18px;&quot;&gt;Olá meu nome&lt;/font&gt;&amp;nbsp;é&amp;nbsp;&amp;nbsp;&lt;/h1&gt;&lt;h1&gt;&amp;nbsp; &amp;nbsp; &amp;nbsp; &amp;nbsp; &amp;nbsp; &amp;nbsp; &amp;nbsp; &amp;nbsp;Guilherme&amp;nbsp; &amp;nbsp; &amp;nbsp; &amp;nbsp; &amp;nbsp; &amp;nbsp; &amp;nbsp; &amp;nbsp; &amp;nbsp; &amp;nbsp; &amp;nbsp; Thomé&lt;/h1&gt;&lt;div&gt;&lt;br&gt;&lt;/div&gt;" style="text;html=1;strokeColor=none;fillColor=none;spacing=5;spacingTop=-20;whiteSpace=wrap;overflow=hidden;rounded=0;" vertex="1" parent="1">
          <mxGeometry x="305.25" y="-910" width="266.25" height="140" as="geometry" />
        </mxCell>
        <mxCell id="jvSLYuEVAEuMC5ZaAQWm-9" value="" style="ellipse;whiteSpace=wrap;html=1;aspect=fixed;" vertex="1" parent="1">
          <mxGeometry x="364" y="-1030" width="100" height="100" as="geometry" />
        </mxCell>
        <mxCell id="jvSLYuEVAEuMC5ZaAQWm-10" value="" style="rounded=1;whiteSpace=wrap;html=1;arcSize=0;" vertex="1" parent="1">
          <mxGeometry x="220.25" y="-790" width="387.5" height="260" as="geometry" />
        </mxCell>
        <mxCell id="jvSLYuEVAEuMC5ZaAQWm-11" value="" style="shape=parallelogram;perimeter=parallelogramPerimeter;whiteSpace=wrap;html=1;fixedSize=1;" vertex="1" parent="1">
          <mxGeometry x="334" y="-760" width="160" height="80" as="geometry" />
        </mxCell>
        <mxCell id="jvSLYuEVAEuMC5ZaAQWm-12" value="&lt;h1&gt;Sobre mim&lt;/h1&gt;&lt;p&gt;Lorem ipsum dolor sit amet, consectetur adipisicing elit, sed do eiusmod tempor incididunt ut labore et dolore magna aliqua.&lt;/p&gt;" style="text;html=1;strokeColor=none;fillColor=none;spacing=5;spacingTop=-20;whiteSpace=wrap;overflow=hidden;rounded=0;" vertex="1" parent="1">
          <mxGeometry x="319" y="-660" width="190" height="120" as="geometry" />
        </mxCell>
        <mxCell id="jvSLYuEVAEuMC5ZaAQWm-13" value="&lt;h1&gt;Contato&lt;/h1&gt;&lt;p&gt;Lorem ipsum dolor sit amet, consectetur adipisicing elit, sed do eiusmod tempor incididunt ut labore et dolore magna aliqua.&lt;/p&gt;" style="text;html=1;strokeColor=none;fillColor=none;spacing=5;spacingTop=-20;whiteSpace=wrap;overflow=hidden;rounded=0;" vertex="1" parent="1">
          <mxGeometry x="319" y="-430" width="190" height="120" as="geometry" />
        </mxCell>
        <mxCell id="jvSLYuEVAEuMC5ZaAQWm-14" value="" style="triangle;whiteSpace=wrap;html=1;" vertex="1" parent="1">
          <mxGeometry x="377.13" y="-510" width="73.75" height="70" as="geometry" />
        </mxCell>
        <mxCell id="jvSLYuEVAEuMC5ZaAQWm-16" value="" style="edgeStyle=orthogonalEdgeStyle;rounded=0;orthogonalLoop=1;jettySize=auto;html=1;" edge="1" parent="1" source="jvSLYuEVAEuMC5ZaAQWm-15" target="jvSLYuEVAEuMC5ZaAQWm-7">
          <mxGeometry relative="1" as="geometry" />
        </mxCell>
        <mxCell id="jvSLYuEVAEuMC5ZaAQWm-15" value="Mobile" style="text;html=1;align=center;verticalAlign=middle;resizable=0;points=[];autosize=1;strokeColor=none;fillColor=none;fontSize=48;" vertex="1" parent="1">
          <mxGeometry x="334.01" y="-182" width="160" height="70" as="geometry" />
        </mxCell>
      </root>
    </mxGraphModel>
  </diagram>
</mxfile>
